<mxfile host="app.diagrams.net" modified="2023-08-08T09:02:29.704Z" agent="Mozilla/5.0 (Windows NT 10.0; Win64; x64) AppleWebKit/537.36 (KHTML, like Gecko) Chrome/115.0.0.0 Safari/537.36" etag="Pbrdi0T3n1ImXVgjHfAf" version="21.6.6" type="device">
  <diagram name="Page-1" id="HVxOONhlEIGFgf3GUXc8">
    <mxGraphModel dx="934" dy="1326" grid="1" gridSize="10" guides="1" tooltips="1" connect="1" arrows="1" fold="1" page="1" pageScale="1" pageWidth="827" pageHeight="1169" math="0" shadow="0">
      <root>
        <mxCell id="0" />
        <mxCell id="1" parent="0" />
        <mxCell id="2" value="Library" style="swimlane;fontStyle=1;align=center;verticalAlign=top;childLayout=stackLayout;horizontal=1;startSize=25.7;horizontalStack=0;resizeParent=1;resizeParentMax=0;resizeLast=0;collapsible=0;marginBottom=0;" parent="1" vertex="1">
          <mxGeometry x="258" y="8" width="323" height="163.7" as="geometry" />
        </mxCell>
        <mxCell id="3" value="+name: string" style="text;strokeColor=none;fillColor=none;align=left;verticalAlign=top;spacingLeft=4;spacingRight=4;overflow=hidden;rotatable=0;points=[[0,0.5],[1,0.5]];portConstraint=eastwest;" parent="2" vertex="1">
          <mxGeometry y="25.7" width="323" height="26" as="geometry" />
        </mxCell>
        <mxCell id="4" value="+location: string" style="text;strokeColor=none;fillColor=none;align=left;verticalAlign=top;spacingLeft=4;spacingRight=4;overflow=hidden;rotatable=0;points=[[0,0.5],[1,0.5]];portConstraint=eastwest;" parent="2" vertex="1">
          <mxGeometry y="51.7" width="323" height="26" as="geometry" />
        </mxCell>
        <mxCell id="Ira-WNJIvOS8Dviq5nZ5-63" value="+members: Member[]" style="text;strokeColor=none;fillColor=none;align=left;verticalAlign=top;spacingLeft=4;spacingRight=4;overflow=hidden;rotatable=0;points=[[0,0.5],[1,0.5]];portConstraint=eastwest;" vertex="1" parent="2">
          <mxGeometry y="77.7" width="323" height="26" as="geometry" />
        </mxCell>
        <mxCell id="Ira-WNJIvOS8Dviq5nZ5-49" value="+books: Book[]" style="text;strokeColor=none;fillColor=none;align=left;verticalAlign=top;spacingLeft=4;spacingRight=4;overflow=hidden;rotatable=0;points=[[0,0.5],[1,0.5]];portConstraint=eastwest;" vertex="1" parent="2">
          <mxGeometry y="103.7" width="323" height="26" as="geometry" />
        </mxCell>
        <mxCell id="Ira-WNJIvOS8Dviq5nZ5-64" value="+librarian: Librarian" style="text;strokeColor=none;fillColor=none;align=left;verticalAlign=top;spacingLeft=4;spacingRight=4;overflow=hidden;rotatable=0;points=[[0,0.5],[1,0.5]];portConstraint=eastwest;" vertex="1" parent="2">
          <mxGeometry y="129.7" width="323" height="26" as="geometry" />
        </mxCell>
        <mxCell id="5" style="line;strokeWidth=1;fillColor=none;align=left;verticalAlign=middle;spacingTop=-1;spacingLeft=3;spacingRight=3;rotatable=0;labelPosition=right;points=[];portConstraint=eastwest;strokeColor=inherit;" parent="2" vertex="1">
          <mxGeometry y="155.7" width="323" height="8" as="geometry" />
        </mxCell>
        <mxCell id="13" value="Visitor" style="swimlane;fontStyle=1;align=center;verticalAlign=top;childLayout=stackLayout;horizontal=1;startSize=28.4;horizontalStack=0;resizeParent=1;resizeParentMax=0;resizeLast=0;collapsible=0;marginBottom=0;" parent="1" vertex="1">
          <mxGeometry x="8" y="346" width="227" height="92.4" as="geometry" />
        </mxCell>
        <mxCell id="Ira-WNJIvOS8Dviq5nZ5-58" value="+name: string" style="text;strokeColor=none;fillColor=none;align=left;verticalAlign=top;spacingLeft=4;spacingRight=4;overflow=hidden;rotatable=0;points=[[0,0.5],[1,0.5]];portConstraint=eastwest;" vertex="1" parent="13">
          <mxGeometry y="28.4" width="227" height="28" as="geometry" />
        </mxCell>
        <mxCell id="16" style="line;strokeWidth=1;fillColor=none;align=left;verticalAlign=middle;spacingTop=-1;spacingLeft=3;spacingRight=3;rotatable=0;labelPosition=right;points=[];portConstraint=eastwest;strokeColor=inherit;" parent="13" vertex="1">
          <mxGeometry y="56.4" width="227" height="8" as="geometry" />
        </mxCell>
        <mxCell id="17" value="+register(name: string): Member" style="text;strokeColor=none;fillColor=none;align=left;verticalAlign=top;spacingLeft=4;spacingRight=4;overflow=hidden;rotatable=0;points=[[0,0.5],[1,0.5]];portConstraint=eastwest;" parent="13" vertex="1">
          <mxGeometry y="64.4" width="227" height="28" as="geometry" />
        </mxCell>
        <mxCell id="19" value="Member" style="swimlane;fontStyle=1;align=center;verticalAlign=top;childLayout=stackLayout;horizontal=1;startSize=28.4;horizontalStack=0;resizeParent=1;resizeParentMax=0;resizeLast=0;collapsible=0;marginBottom=0;" parent="1" vertex="1">
          <mxGeometry x="285" y="346" width="269" height="204.4" as="geometry" />
        </mxCell>
        <mxCell id="Ira-WNJIvOS8Dviq5nZ5-61" value="+id: int" style="text;strokeColor=none;fillColor=none;align=left;verticalAlign=top;spacingLeft=4;spacingRight=4;overflow=hidden;rotatable=0;points=[[0,0.5],[1,0.5]];portConstraint=eastwest;" vertex="1" parent="19">
          <mxGeometry y="28.4" width="269" height="28" as="geometry" />
        </mxCell>
        <mxCell id="20" value="+name: string" style="text;strokeColor=none;fillColor=none;align=left;verticalAlign=top;spacingLeft=4;spacingRight=4;overflow=hidden;rotatable=0;points=[[0,0.5],[1,0.5]];portConstraint=eastwest;" parent="19" vertex="1">
          <mxGeometry y="56.4" width="269" height="28" as="geometry" />
        </mxCell>
        <mxCell id="Ira-WNJIvOS8Dviq5nZ5-60" value="+address: string" style="text;strokeColor=none;fillColor=none;align=left;verticalAlign=top;spacingLeft=4;spacingRight=4;overflow=hidden;rotatable=0;points=[[0,0.5],[1,0.5]];portConstraint=eastwest;" vertex="1" parent="19">
          <mxGeometry y="84.4" width="269" height="28" as="geometry" />
        </mxCell>
        <mxCell id="Ira-WNJIvOS8Dviq5nZ5-59" value="+borrowedBooks: Book[]" style="text;strokeColor=none;fillColor=none;align=left;verticalAlign=top;spacingLeft=4;spacingRight=4;overflow=hidden;rotatable=0;points=[[0,0.5],[1,0.5]];portConstraint=eastwest;" vertex="1" parent="19">
          <mxGeometry y="112.4" width="269" height="28" as="geometry" />
        </mxCell>
        <mxCell id="21" style="line;strokeWidth=1;fillColor=none;align=left;verticalAlign=middle;spacingTop=-1;spacingLeft=3;spacingRight=3;rotatable=0;labelPosition=right;points=[];portConstraint=eastwest;strokeColor=inherit;" parent="19" vertex="1">
          <mxGeometry y="140.4" width="269" height="8" as="geometry" />
        </mxCell>
        <mxCell id="22" value="+requestBook(books: Book): void" style="text;strokeColor=none;fillColor=none;align=left;verticalAlign=top;spacingLeft=4;spacingRight=4;overflow=hidden;rotatable=0;points=[[0,0.5],[1,0.5]];portConstraint=eastwest;" parent="19" vertex="1">
          <mxGeometry y="148.4" width="269" height="28" as="geometry" />
        </mxCell>
        <mxCell id="23" value="+returnBook(books: Book): void" style="text;strokeColor=none;fillColor=none;align=left;verticalAlign=top;spacingLeft=4;spacingRight=4;overflow=hidden;rotatable=0;points=[[0,0.5],[1,0.5]];portConstraint=eastwest;" parent="19" vertex="1">
          <mxGeometry y="176.4" width="269" height="28" as="geometry" />
        </mxCell>
        <mxCell id="25" value="Librarian" style="swimlane;fontStyle=1;align=center;verticalAlign=top;childLayout=stackLayout;horizontal=1;startSize=26.857142857142858;horizontalStack=0;resizeParent=1;resizeParentMax=0;resizeLast=0;collapsible=0;marginBottom=0;" parent="1" vertex="1">
          <mxGeometry x="630" y="346" width="363" height="250.85714285714286" as="geometry" />
        </mxCell>
        <mxCell id="Ira-WNJIvOS8Dviq5nZ5-62" value="+id: int" style="text;strokeColor=none;fillColor=none;align=left;verticalAlign=top;spacingLeft=4;spacingRight=4;overflow=hidden;rotatable=0;points=[[0,0.5],[1,0.5]];portConstraint=eastwest;" vertex="1" parent="25">
          <mxGeometry y="26.857142857142858" width="363" height="27" as="geometry" />
        </mxCell>
        <mxCell id="26" value="+name: string" style="text;strokeColor=none;fillColor=none;align=left;verticalAlign=top;spacingLeft=4;spacingRight=4;overflow=hidden;rotatable=0;points=[[0,0.5],[1,0.5]];portConstraint=eastwest;" parent="25" vertex="1">
          <mxGeometry y="53.85714285714286" width="363" height="27" as="geometry" />
        </mxCell>
        <mxCell id="27" style="line;strokeWidth=1;fillColor=none;align=left;verticalAlign=middle;spacingTop=-1;spacingLeft=3;spacingRight=3;rotatable=0;labelPosition=right;points=[];portConstraint=eastwest;strokeColor=inherit;" parent="25" vertex="1">
          <mxGeometry y="80.85714285714286" width="363" height="8" as="geometry" />
        </mxCell>
        <mxCell id="28" value="+addNewBook(book: Book): Book" style="text;strokeColor=none;fillColor=none;align=left;verticalAlign=top;spacingLeft=4;spacingRight=4;overflow=hidden;rotatable=0;points=[[0,0.5],[1,0.5]];portConstraint=eastwest;" parent="25" vertex="1">
          <mxGeometry y="88.85714285714286" width="363" height="27" as="geometry" />
        </mxCell>
        <mxCell id="Ira-WNJIvOS8Dviq5nZ5-50" value="+updateBook(book: Book): Book" style="text;strokeColor=none;fillColor=none;align=left;verticalAlign=top;spacingLeft=4;spacingRight=4;overflow=hidden;rotatable=0;points=[[0,0.5],[1,0.5]];portConstraint=eastwest;" vertex="1" parent="25">
          <mxGeometry y="115.85714285714286" width="363" height="27" as="geometry" />
        </mxCell>
        <mxCell id="29" value="+removeBook(book: Book): void" style="text;strokeColor=none;fillColor=none;align=left;verticalAlign=top;spacingLeft=4;spacingRight=4;overflow=hidden;rotatable=0;points=[[0,0.5],[1,0.5]];portConstraint=eastwest;" parent="25" vertex="1">
          <mxGeometry y="142.85714285714286" width="363" height="27" as="geometry" />
        </mxCell>
        <mxCell id="Ira-WNJIvOS8Dviq5nZ5-65" value="+addNewMember(member: Member): void" style="text;strokeColor=none;fillColor=none;align=left;verticalAlign=top;spacingLeft=4;spacingRight=4;overflow=hidden;rotatable=0;points=[[0,0.5],[1,0.5]];portConstraint=eastwest;" vertex="1" parent="25">
          <mxGeometry y="169.85714285714286" width="363" height="27" as="geometry" />
        </mxCell>
        <mxCell id="31" value="+processCheckOut(user: User, book: Book): void" style="text;strokeColor=none;fillColor=none;align=left;verticalAlign=top;spacingLeft=4;spacingRight=4;overflow=hidden;rotatable=0;points=[[0,0.5],[1,0.5]];portConstraint=eastwest;" parent="25" vertex="1">
          <mxGeometry y="196.85714285714286" width="363" height="27" as="geometry" />
        </mxCell>
        <mxCell id="32" value="+processReturn(user: User, book: Book): void" style="text;strokeColor=none;fillColor=none;align=left;verticalAlign=top;spacingLeft=4;spacingRight=4;overflow=hidden;rotatable=0;points=[[0,0.5],[1,0.5]];portConstraint=eastwest;" parent="25" vertex="1">
          <mxGeometry y="223.85714285714286" width="363" height="27" as="geometry" />
        </mxCell>
        <mxCell id="33" value="Book" style="swimlane;fontStyle=1;align=center;verticalAlign=top;childLayout=stackLayout;horizontal=1;startSize=26.444444444444443;horizontalStack=0;resizeParent=1;resizeParentMax=0;resizeLast=0;collapsible=0;marginBottom=0;" parent="1" vertex="1">
          <mxGeometry x="780" y="8" width="201" height="143.44444444444446" as="geometry" />
        </mxCell>
        <mxCell id="34" value="+title: string" style="text;strokeColor=none;fillColor=none;align=left;verticalAlign=top;spacingLeft=4;spacingRight=4;overflow=hidden;rotatable=0;points=[[0,0.5],[1,0.5]];portConstraint=eastwest;" parent="33" vertex="1">
          <mxGeometry y="26.444444444444443" width="201" height="26" as="geometry" />
        </mxCell>
        <mxCell id="35" value="+author: string" style="text;strokeColor=none;fillColor=none;align=left;verticalAlign=top;spacingLeft=4;spacingRight=4;overflow=hidden;rotatable=0;points=[[0,0.5],[1,0.5]];portConstraint=eastwest;" parent="33" vertex="1">
          <mxGeometry y="52.44444444444444" width="201" height="26" as="geometry" />
        </mxCell>
        <mxCell id="Ira-WNJIvOS8Dviq5nZ5-51" value="+publicationYear: number" style="text;strokeColor=none;fillColor=none;align=left;verticalAlign=top;spacingLeft=4;spacingRight=4;overflow=hidden;rotatable=0;points=[[0,0.5],[1,0.5]];portConstraint=eastwest;" vertex="1" parent="33">
          <mxGeometry y="78.44444444444444" width="201" height="26" as="geometry" />
        </mxCell>
        <mxCell id="36" value="+available: bool" style="text;strokeColor=none;fillColor=none;align=left;verticalAlign=top;spacingLeft=4;spacingRight=4;overflow=hidden;rotatable=0;points=[[0,0.5],[1,0.5]];portConstraint=eastwest;" parent="33" vertex="1">
          <mxGeometry y="104.44444444444444" width="201" height="26" as="geometry" />
        </mxCell>
        <mxCell id="37" style="line;strokeWidth=1;fillColor=none;align=left;verticalAlign=middle;spacingTop=-1;spacingLeft=3;spacingRight=3;rotatable=0;labelPosition=right;points=[];portConstraint=eastwest;strokeColor=inherit;" parent="33" vertex="1">
          <mxGeometry y="130.44444444444446" width="201" height="13" as="geometry" />
        </mxCell>
        <mxCell id="38" value="" style="curved=1;startArrow=none;endArrow=none;exitX=0.00024187306501547988;exitY=0.8220329344981513;entryX=0.49998279185022027;entryY=0;" parent="1" source="2" target="13" edge="1">
          <mxGeometry relative="1" as="geometry">
            <Array as="points">
              <mxPoint x="121" y="298" />
            </Array>
          </mxGeometry>
        </mxCell>
        <mxCell id="39" value="1" style="edgeLabel;resizable=0;align=left;verticalAlign=top;" parent="38" vertex="1">
          <mxGeometry x="-1" relative="1" as="geometry">
            <mxPoint x="-18" y="-11" as="offset" />
          </mxGeometry>
        </mxCell>
        <mxCell id="40" value="n" style="edgeLabel;resizable=0;align=right;verticalAlign=top;" parent="38" vertex="1">
          <mxGeometry x="1" relative="1" as="geometry">
            <mxPoint x="19" y="-26" as="offset" />
          </mxGeometry>
        </mxCell>
        <mxCell id="41" value="" style="curved=1;startArrow=none;endArrow=none;exitX=0.5003144349845201;exitY=1;entryX=0.5003775557620818;entryY=0;" parent="1" source="2" target="19" edge="1">
          <mxGeometry relative="1" as="geometry">
            <Array as="points" />
          </mxGeometry>
        </mxCell>
        <mxCell id="42" value="1" style="edgeLabel;resizable=0;align=left;verticalAlign=top;" parent="41" vertex="1">
          <mxGeometry x="-1" relative="1" as="geometry" />
        </mxCell>
        <mxCell id="43" value="n" style="edgeLabel;resizable=0;align=right;verticalAlign=top;" parent="41" vertex="1">
          <mxGeometry x="1" relative="1" as="geometry">
            <mxPoint x="-10" y="-26" as="offset" />
          </mxGeometry>
        </mxCell>
        <mxCell id="44" value="" style="curved=1;startArrow=none;endArrow=none;exitX=1.0003869969040247;exitY=0.762188143002821;entryX=0.5006887052341598;entryY=0;" parent="1" source="2" target="25" edge="1">
          <mxGeometry relative="1" as="geometry">
            <Array as="points">
              <mxPoint x="786" y="298" />
            </Array>
          </mxGeometry>
        </mxCell>
        <mxCell id="45" value="1" style="edgeLabel;resizable=0;align=left;verticalAlign=top;" parent="44" vertex="1">
          <mxGeometry x="-1" relative="1" as="geometry">
            <mxPoint x="9" y="-13" as="offset" />
          </mxGeometry>
        </mxCell>
        <mxCell id="46" value="n" style="edgeLabel;resizable=0;align=right;verticalAlign=top;" parent="44" vertex="1">
          <mxGeometry x="1" relative="1" as="geometry">
            <mxPoint x="14" y="-23" as="offset" />
          </mxGeometry>
        </mxCell>
        <mxCell id="Ira-WNJIvOS8Dviq5nZ5-55" value="" style="curved=1;startArrow=none;endArrow=none;exitX=1.007;exitY=0.195;entryX=0;entryY=0.5;entryDx=0;entryDy=0;exitDx=0;exitDy=0;exitPerimeter=0;" edge="1" parent="1" source="4" target="35">
          <mxGeometry relative="1" as="geometry">
            <Array as="points">
              <mxPoint x="640" y="65" />
              <mxPoint x="690" y="60" />
            </Array>
            <mxPoint x="601" y="133" as="sourcePoint" />
            <mxPoint x="832" y="366" as="targetPoint" />
          </mxGeometry>
        </mxCell>
        <mxCell id="Ira-WNJIvOS8Dviq5nZ5-56" value="1" style="edgeLabel;resizable=0;align=left;verticalAlign=top;" vertex="1" parent="Ira-WNJIvOS8Dviq5nZ5-55">
          <mxGeometry x="-1" relative="1" as="geometry">
            <mxPoint x="7" y="-25" as="offset" />
          </mxGeometry>
        </mxCell>
        <mxCell id="Ira-WNJIvOS8Dviq5nZ5-57" value="n" style="edgeLabel;resizable=0;align=right;verticalAlign=top;" vertex="1" parent="Ira-WNJIvOS8Dviq5nZ5-55">
          <mxGeometry x="1" relative="1" as="geometry">
            <mxPoint y="-23" as="offset" />
          </mxGeometry>
        </mxCell>
      </root>
    </mxGraphModel>
  </diagram>
</mxfile>
